<?xml version="1.0" encoding="utf-8"?>
<!-- Generator: Adobe Illustrator 18.1.0, SVG Export Plug-In . SVG Version: 6.00 Build 0)  -->
<svg version="1.1" id="Layer_1" xmlns="http://www.w3.org/2000/svg" xmlns:xlink="http://www.w3.org/1999/xlink" x="0px" y="0px"
	 viewBox="-149 378 420 325" enable-background="new -149 378 420 325" xml:space="preserve">
<g id="APP_DESIGN">
</g>
<g id="ECOMMERCE">
</g>
<g id="WORDPRESS">
</g>
<path fill="#FFFFFF" d="M-56.5,540.5C-56.5,476.3-5,424.1,59,423v-45h-208v325H59v-45C-5,656.9-56.5,604.7-56.5,540.5z"/>
<path fill="#FFFFFF" d="M178.5,540.5C178.5,476.3,127,424.1,63,423v-45h208v325H63v-45C127,656.9,178.5,604.7,178.5,540.5z"/>
<g>
	<path fill="#FFFFFF" d="M78.6,527.4c-10.8-9.2-27-8-36.2,2.8c-9.2,10.8-8,27,2.8,36.2c10.8,9.2,27,8,36.2-2.8
		C90.6,552.9,89.3,536.7,78.6,527.4z M61.9,534.1c-7.1,0-12.8,5.7-12.8,12.8v0c0,1.2-1,2.1-2.1,2.1c-1.2,0-2.1-1-2.1-2.1v0
		c0-9.4,7.7-17.1,17.1-17.1c1.2,0,2.1,1,2.1,2.1S63,534.1,61.9,534.1z"/>
	<path fill="#FFFFFF" d="M118.2,517l-23.3-3.9L87.2,494c-0.7-1.6-2.2-2.7-4-2.7H40.5c-1.8,0-3.3,1.1-4,2.7l-7.7,19.2L5.6,517
		c-2.1,0.3-3.6,2.1-3.6,4.2v64.2c0,2.4,1.9,4.3,4.3,4.3h111.2c2.4,0,4.3-1.9,4.3-4.3v-64.2C121.8,519.2,120.2,517.4,118.2,517z
		 M61.9,581.1c-18.9,0-34.2-15.3-34.2-34.2s15.3-34.2,34.2-34.2c18.9,0,34.2,15.3,34.2,34.2C96.1,565.8,80.8,581.1,61.9,581.1z"/>
	<path fill="#FFFFFF" d="M61,426.8c-62.8,0-113.8,50.9-113.8,113.8S-1.8,654.2,61,654.2s113.8-50.9,113.8-113.8
		S123.8,426.8,61,426.8z M130.3,585.4c0,7.1-5.8,12.8-12.8,12.8H6.3c-7.1,0-12.8-5.8-12.8-12.8v-64.2c0-6.3,4.5-11.6,10.7-12.7
		l18.5-3.1l5.9-14.7c2-4.9,6.6-8.1,11.9-8.1h42.8c5.3,0,10,3.2,11.9,8.1l5.9,14.7l18.5,3.1c6.2,1,10.7,6.4,10.7,12.7L130.3,585.4
		L130.3,585.4z"/>
</g>
<g>
	<rect x="-149" y="377.8" fill="#FFFFFF" width="208" height="3"/>
	<rect x="63" y="377.8" fill="#FFFFFF" width="208" height="3"/>
</g>
</svg>
