<?xml version="1.0" encoding="utf-8"?>
<!-- Generator: Adobe Illustrator 18.1.0, SVG Export Plug-In . SVG Version: 6.00 Build 0)  -->
<svg version="1.1" id="Layer_1" xmlns="http://www.w3.org/2000/svg" xmlns:xlink="http://www.w3.org/1999/xlink" x="0px" y="0px"
	 viewBox="-149 378 420 325" enable-background="new -149 378 420 325" xml:space="preserve">
<g id="APP_DESIGN">
</g>
<g id="ECOMMERCE">
</g>
<g id="WORDPRESS">
</g>
<path fill="#FFFFFF" d="M-56.5,540.5C-56.5,476.3-5,424.1,59,423v-45h-208v325H59v-45C-5,656.9-56.5,604.7-56.5,540.5z"/>
<path fill="#FFFFFF" d="M178.5,540.5C178.5,476.3,127,424.1,63,423v-45h208v325H63v-45C127,656.9,178.5,604.7,178.5,540.5z"/>
<g>
	<path fill="#FFFFFF" d="M66.6,508.1c4.6,0,8.3-3.7,8.3-8.3s-3.7-8.3-8.3-8.3c-4.6,0-8.3,3.7-8.3,8.3S62,508.1,66.6,508.1z"/>
	<path fill="#FFFFFF" d="M81.8,527.1h-66c-1.9,0-3.5,1.6-3.5,3.5v55.5c0,1.9,1.6,3.5,3.5,3.5h66c1.9,0,3.5-1.6,3.5-3.5v-55.5
		C85.3,528.6,83.7,527.1,81.8,527.1z"/>
	<polygon fill="#FFFFFF" points="106.1,530.5 88.8,547.9 88.8,568.7 92.2,572.2 92.2,572.3 106.1,586.2 106.5,586.2 109.6,586.2 
		109.6,530.5 106.5,530.5 	"/>
	<path fill="#FFFFFF" d="M30.9,508.1c4.6,0,8.3-3.7,8.3-8.3s-3.7-8.3-8.3-8.3c-4.6,0-8.3,3.7-8.3,8.3
		C22.6,504.4,26.3,508.1,30.9,508.1z"/>
	<path fill="#FFFFFF" d="M61,426.8c-62.8,0-113.7,50.9-113.7,113.7S-1.8,654.2,61,654.2s113.7-50.9,113.7-113.7
		S123.8,426.8,61,426.8z M66.6,484.5c8.4,0,15.3,6.8,15.3,15.3S75,515,66.6,515c-8.4,0-15.3-6.8-15.3-15.3S58.1,484.5,66.6,484.5z
		 M30.9,484.5c8.4,0,15.3,6.8,15.3,15.3S39.4,515,30.9,515c-8.4,0-15.3-6.8-15.3-15.3S22.5,484.5,30.9,484.5z M116.5,586.2
		c0,3.8-3.1,6.9-6.9,6.9h-3.1c-1.8,0-3.6-0.7-4.9-2l-9.4-9.3v4.2c0,5.8-4.7,10.4-10.4,10.4h-66c-5.8,0-10.4-4.7-10.4-10.4v-31.3
		v-24.2c0-5.7,4.7-10.4,10.4-10.4h66c5.7,0,10.4,4.7,10.4,10.4v4.3l9.4-9.3c1.3-1.3,3.1-2,4.9-2h3.1c3.8,0,6.9,3.1,6.9,6.9V586.2z"
		/>
</g>
<g>
	<rect x="-149" y="377.8" fill="#FFFFFF" width="208" height="3"/>
	<rect x="63" y="377.8" fill="#FFFFFF" width="208" height="3"/>
</g>
</svg>
