<?xml version="1.0" encoding="utf-8"?>
<!-- Generator: Adobe Illustrator 16.0.4, SVG Export Plug-In . SVG Version: 6.00 Build 0)  -->
<!DOCTYPE svg PUBLIC "-//W3C//DTD SVG 1.1//EN" "http://www.w3.org/Graphics/SVG/1.1/DTD/svg11.dtd">
<svg version="1.1" id="Layer_1" xmlns="http://www.w3.org/2000/svg" xmlns:xlink="http://www.w3.org/1999/xlink" x="0px" y="0px"
	 width="420px" height="325px" viewBox="0 0 420 325" enable-background="new 0 0 420 325" xml:space="preserve">
<g id="APP_DESIGN">
</g>
<g id="ECOMMERCE">
</g>
<g id="WORDPRESS">
</g>
<g>
	<path fill="#FFFFFF" d="M92.5,162.5c0-64.225,51.53-116.406,115.5-117.475V0H0v325h208v-45.025
		C144.03,278.906,92.5,226.725,92.5,162.5z"/>
	<path fill="#FFFFFF" d="M327.5,162.5c0-64.225-51.529-116.406-115.5-117.475V0h208v325H212v-45.025
		C275.971,278.906,327.5,226.725,327.5,162.5z"/>
	<g>
		<path fill="#FFFFFF" d="M168.309,174.852c-0.643,0.766-1.166,1.629-1.434,2.513l-3.656,13.243
			c4.998,0.199,10.004,2.406,13.824,6.24c4.046,4.035,6.054,9.163,6.138,14.082l13.568-3.558c0.467-0.138,0.896-0.354,1.319-0.577
			c6.409-7.277,5.125-19.465-3.201-27.783C187.005,171.134,175.674,169.581,168.309,174.852z"/>
		<path fill="#FFFFFF" d="M223.695,132.014c-6.211-1.541-12.514-0.327-16.842,3.896l-28.285,28.497
			c3.572,0.046,7.137,0.829,10.536,2.198L223.695,132.014z"/>
		<path fill="#FFFFFF" d="M235.252,138.626c-2.32-2.325-4.952-4.06-7.699-5.277l-34.99,34.993c2.68,1.477,5.254,3.232,7.498,5.477
			c1.928,1.925,3.484,4.093,4.854,6.346l35.041-35.038C238.773,142.819,237.24,140.603,235.252,138.626z"/>
		<path fill="#FFFFFF" d="M162.186,194.361l-3.863,14.006c-0.088,0.391-0.332,1.449-0.374,2.064c0,3.018,2.444,5.473,5.465,5.506
			c0.845-0.062,2.092-0.373,2.493-0.467l13.652-3.587c0.188-4.241-1.502-8.842-5.112-12.446
			C170.897,195.881,166.381,194.247,162.186,194.361z"/>
		<path fill="#FFFFFF" d="M206.758,183.509c1.406,3.087,2.336,6.333,2.639,9.652c0.088,0.926,0.041,1.819,0.033,2.735l28.376-28.595
			l-0.05-0.051c0.027-0.026,0.065-0.046,0.093-0.071c4.653-4.659,5.742-11.668,3.621-18.375L206.758,183.509z"/>
		<path fill="#FFFFFF" d="M210,48.75c-62.822,0-113.75,50.928-113.75,113.75S147.178,276.25,210,276.25s113.75-50.928,113.75-113.75
			S272.822,48.75,210,48.75z M261.139,154.206l-56.037,56.476c-1.744,1.748-3.894,3.024-6.261,3.729l-31.118,8.184
			c-0.103,0.016-2.841,0.688-4.252,0.688c-7.105,0-12.865-5.755-12.865-12.851c0-1.246,0.559-3.701,0.574-3.785l8.619-31.235
			c0.704-2.36,1.97-4.524,3.721-6.261l37.926-38.211l-0.008-0.007c0.027-0.028,0.043-0.069,0.072-0.098
			c0.059-0.054,0.119-0.09,0.173-0.14l17.866-18.005c4.448-4.439,10.533-6.891,17.145-6.891c7.841,0,15.791,3.441,21.83,9.473
			C270.184,126.908,271.329,144.003,261.139,154.206z"/>
		<path fill="#FFFFFF" d="M236.693,113.141c-4.646,0-8.892,1.685-11.933,4.722l-6.081,6.132c7.853,0.021,15.783,3.455,21.766,9.438
			c5.375,5.371,8.688,12.241,9.334,19.343c0.08,0.848-0.02,1.646-0.02,2.475l6.18-6.231c3.412-3.417,5.106-8.121,4.763-13.251
			c-0.375-5.496-2.981-10.928-7.365-15.301C248.668,115.812,242.604,113.141,236.693,113.141z"/>
	</g>
</g>
</svg>
