<?xml version="1.0" encoding="utf-8"?>
<!-- Generator: Adobe Illustrator 16.0.4, SVG Export Plug-In . SVG Version: 6.00 Build 0)  -->
<!DOCTYPE svg PUBLIC "-//W3C//DTD SVG 1.1//EN" "http://www.w3.org/Graphics/SVG/1.1/DTD/svg11.dtd">
<svg version="1.1" id="Layer_1" xmlns="http://www.w3.org/2000/svg" xmlns:xlink="http://www.w3.org/1999/xlink" x="0px" y="0px"
	 width="100px" height="60px" viewBox="0 0 100 60" enable-background="new 0 0 100 60" xml:space="preserve">
<g>
	<g>
		<path fill="#FFFFFF" d="M39.89,32.995c-0.156,0.187-0.283,0.396-0.347,0.608l-0.887,3.213c1.212,0.047,2.426,0.582,3.352,1.513
			c0.981,0.979,1.468,2.222,1.489,3.414l3.29-0.862c0.113-0.033,0.217-0.086,0.32-0.141c1.554-1.764,1.243-4.721-0.776-6.736
			C44.424,32.093,41.676,31.717,39.89,32.995z"/>
		<path fill="#FFFFFF" d="M53.32,22.607c-1.506-0.374-3.034-0.08-4.083,0.945l-6.859,6.91c0.867,0.012,1.73,0.202,2.555,0.533
			L53.32,22.607z"/>
		<path fill="#FFFFFF" d="M56.124,24.211c-0.563-0.564-1.201-0.985-1.867-1.281l-8.485,8.486c0.65,0.357,1.274,0.784,1.818,1.328
			c0.468,0.467,0.845,0.992,1.177,1.538l8.497-8.496C56.977,25.228,56.605,24.69,56.124,24.211z"/>
		<path fill="#FFFFFF" d="M38.405,37.727l-0.937,3.396c-0.021,0.095-0.08,0.352-0.09,0.5c0,0.73,0.592,1.327,1.325,1.335
			c0.205-0.017,0.507-0.091,0.605-0.112l3.311-0.871c0.045-1.026-0.365-2.144-1.24-3.019C40.519,38.094,39.423,37.698,38.405,37.727
			z"/>
		<path fill="#FFFFFF" d="M49.214,35.095c0.341,0.749,0.566,1.535,0.64,2.341c0.021,0.225,0.009,0.44,0.008,0.664l6.88-6.936
			l-0.012-0.012c0.008-0.008,0.017-0.012,0.021-0.019c1.129-1.129,1.393-2.829,0.878-4.456L49.214,35.095z"/>
		<path fill="#FFFFFF" d="M50,2.417c-15.233,0-27.583,12.35-27.583,27.583c0,15.232,12.35,27.583,27.583,27.583
			c15.232,0,27.583-12.351,27.583-27.583C77.583,14.767,65.232,2.417,50,2.417z M62.4,27.988L48.812,41.684
			c-0.423,0.424-0.944,0.733-1.518,0.903l-7.546,1.985c-0.024,0.003-0.688,0.167-1.031,0.167c-1.722,0-3.119-1.396-3.119-3.116
			c0-0.303,0.136-0.896,0.139-0.918l2.09-7.574c0.17-0.572,0.477-1.097,0.902-1.52l9.196-9.264l-0.002-0.002
			c0.007-0.006,0.011-0.017,0.018-0.022c0.015-0.013,0.03-0.021,0.042-0.034l4.333-4.366c1.078-1.076,2.554-1.671,4.158-1.671
			c1.9,0,3.828,0.834,5.293,2.297C64.593,21.369,64.872,25.515,62.4,27.988z"/>
		<path fill="#FFFFFF" d="M56.475,18.031c-1.129,0-2.156,0.408-2.896,1.145l-1.476,1.487c1.904,0.005,3.828,0.837,5.278,2.289
			c1.304,1.302,2.106,2.968,2.265,4.69c0.02,0.207-0.006,0.4-0.006,0.601l1.5-1.512c0.825-0.828,1.236-1.969,1.153-3.213
			c-0.092-1.333-0.724-2.649-1.786-3.71C59.377,18.679,57.904,18.031,56.475,18.031z"/>
	</g>
	<g>
		<path fill="#FFFFFF" d="M20,30C20,13.432,33.432,0,50,0H18h-8H0v60h10h8h32C33.432,60,20,46.568,20,30z"/>
		<path fill="#FFFFFF" d="M90,0h-8H50c16.568,0,30,13.432,30,30c0,16.568-13.432,30-30,30h32h8h10V0H90z"/>
	</g>
</g>
</svg>
