<?xml version="1.0" encoding="utf-8"?>
<!-- Generator: Adobe Illustrator 18.1.0, SVG Export Plug-In . SVG Version: 6.00 Build 0)  -->
<svg version="1.1" id="Layer_1" xmlns="http://www.w3.org/2000/svg" xmlns:xlink="http://www.w3.org/1999/xlink" x="0px" y="0px"
	 viewBox="-149 378 420 325" enable-background="new -149 378 420 325" xml:space="preserve">
<g>
	<rect x="19.6" y="502.9" fill="#FFFFFF" width="82.8" height="52.7"/>
	<path fill="#FFFFFF" d="M109.9,491.6H12.1c-2.1,0-3.8,1.7-3.8,3.8v75.3c0,2.1,1.7,3.8,3.8,3.8h33.9h30.1h33.9
		c2.1,0,3.8-1.7,3.8-3.8v-75.3C113.7,493.3,112,491.6,109.9,491.6z M106.2,555.5c0,2.1-1.7,3.8-3.8,3.8H19.6c-2.1,0-3.8-1.7-3.8-3.8
		v-52.7c0-2.1,1.7-3.7,3.8-3.7l82.8,0c2.1,0,3.8,1.7,3.8,3.8V555.5z"/>
	<path fill="#FFFFFF" d="M61,426.8c-62.8,0-113.8,50.9-113.8,113.8S-1.8,654.2,61,654.2s113.8-50.9,113.8-113.8
		S123.8,426.8,61,426.8z M121.2,570.6c0,6.2-5,11.3-11.3,11.3H72.3v4.6l23.5,3.1c1.7,0.4,2.9,1.9,2.9,3.7c0,2.1-1.7,3.8-3.8,3.8
		H27.1c-2.1,0-3.8-1.7-3.8-3.8c0-1.7,1.2-3.2,2.9-3.7l23.5-3.1v-4.6H12c-6.2,0-11.3-5.1-11.3-11.3v-75.3c0-6.2,5.1-11.3,11.3-11.3
		h97.8c6.2,0,11.3,5.1,11.3,11.3V570.6z"/>
</g>
<g id="APP_DESIGN">
</g>
<g id="ECOMMERCE">
</g>
<g id="WORDPRESS">
</g>
<path fill="#FFFFFF" d="M-56.5,540.5C-56.5,476.3-5,424.1,59,423v-45h-208v325H59v-45C-5,656.9-56.5,604.7-56.5,540.5z"/>
<path fill="#FFFFFF" d="M178.5,540.5C178.5,476.3,127,424.1,63,423v-45h208v325H63v-45C127,656.9,178.5,604.7,178.5,540.5z"/>
<rect x="-149" y="377.8" fill="#FFFFFF" width="208" height="3"/>
<rect x="63" y="377.8" fill="#FFFFFF" width="208" height="3"/>
</svg>
