<?xml version="1.0" encoding="utf-8"?>
<!-- Generator: Adobe Illustrator 16.0.4, SVG Export Plug-In . SVG Version: 6.00 Build 0)  -->
<!DOCTYPE svg PUBLIC "-//W3C//DTD SVG 1.1//EN" "http://www.w3.org/Graphics/SVG/1.1/DTD/svg11.dtd">
<svg version="1.1" id="Layer_1" xmlns="http://www.w3.org/2000/svg" xmlns:xlink="http://www.w3.org/1999/xlink" x="0px" y="0px"
	 width="100px" height="60px" viewBox="0 0 100 60" enable-background="new 0 0 100 60" xml:space="preserve">
<g>
	<path fill="#FFFFFF" d="M45.79,39.253v-5.888c0-0.293,0.052-0.571,0.143-0.833h-2.53v-0.009h-0.588
		c0.288,0.496,0.451,1.069,0.451,1.683v7.569h3.365v-0.713c-0.039-0.049-0.082-0.094-0.118-0.14
		C46.243,40.601,45.79,40.062,45.79,39.253z"/>
	<path fill="#FFFFFF" d="M57.57,28.318c0-1.393-0.754-2.523-1.683-2.523h-2.386c-0.086,0.808-0.137,1.651-0.137,2.523
		c0,0.875,0.051,1.715,0.137,2.523h2.386C56.816,30.841,57.57,29.713,57.57,28.318z"/>
	<path fill="#FFFFFF" d="M44.953,28.318c0-1.021,0.331-1.912,0.853-2.523h-5.899c-0.93,0-1.682,1.131-1.682,2.523
		c0,1.395,0.752,2.523,1.682,2.523h5.899C45.284,30.23,44.953,29.339,44.953,28.318z"/>
	<path fill="#FFFFFF" d="M52.045,24.097c-1.308,1.074-2.792,1.698-4.379,1.698h-0.188c-0.93,0-1.683,1.131-1.683,2.523
		c0,1.395,0.753,2.523,1.683,2.523v0.01h0.188c1.586,0,3.074,0.626,4.381,1.699c-0.241-1.356-0.364-2.794-0.364-4.232
		C51.683,26.885,51.806,25.451,52.045,24.097z"/>
	<path fill="#FFFFFF" d="M50,2.417c-15.233,0-27.583,12.35-27.583,27.583c0,15.233,12.35,27.583,27.583,27.583
		c15.233,0,27.583-12.35,27.583-27.583C77.583,14.767,65.233,2.417,50,2.417z M57.57,40.094c-1.725,0-3.079-1.183-4.055-3.008
		l-0.021,0.011c-1.319-2.581-3.241-4.294-5.364-4.519c-0.075,0.021-0.156,0.029-0.223,0.065c-0.004,0-0.007,0.005-0.01,0.005
		c-0.006,0.004-0.008,0.008-0.011,0.012c-0.104,0.063-0.188,0.146-0.255,0.245c-0.018,0.024-0.034,0.045-0.049,0.073
		c-0.055,0.103-0.087,0.213-0.095,0.334c-0.002,0.02-0.016,0.033-0.016,0.053v5.888c0,0.464,0.841,0.841,0.841,1.683v0.84
		c0,0.93-0.751,1.683-1.682,1.683h-3.365c-0.928,0-1.682-0.753-1.682-1.683v-7.569c0-0.929-0.75-1.679-1.677-1.683
		c-1.887,0-3.364-1.847-3.364-4.206c0-2.358,1.478-4.206,3.364-4.206h3.497h3.706h0.557c2.307,0,4.414-1.795,5.828-4.564l0.02,0.01
		c0.974-1.83,2.329-3.016,4.057-3.016c3.866,0,5.888,5.923,5.888,11.776C63.458,34.169,61.437,40.094,57.57,40.094z"/>
	<path fill="#FFFFFF" d="M57.57,18.224c-1.697,0-3.154,2.417-3.818,5.888h2.136c1.886,0,3.365,1.848,3.365,4.206
		c0,2.359-1.479,4.206-3.365,4.206h-2.136c0.664,3.473,2.121,5.888,3.818,5.888c2.324,0,4.205-4.519,4.205-10.093
		C61.775,22.744,59.895,18.224,57.57,18.224z"/>
</g>
<g>
	<path fill="#FFFFFF" d="M20,30C20,13.432,33.432,0,50,0H18h-8H0v60h10h8h32C33.432,60,20,46.568,20,30z"/>
	<path fill="#FFFFFF" d="M90,0h-8H50c16.568,0,30,13.432,30,30c0,16.568-13.432,30-30,30h32h8h10V0H90z"/>
</g>
</svg>
