<?xml version="1.0" encoding="utf-8"?>
<!-- Generator: Adobe Illustrator 18.1.0, SVG Export Plug-In . SVG Version: 6.00 Build 0)  -->
<svg version="1.1" id="Layer_1" xmlns="http://www.w3.org/2000/svg" xmlns:xlink="http://www.w3.org/1999/xlink" x="0px" y="0px"
	 viewBox="-149 378 420 325" enable-background="new -149 378 420 325" xml:space="preserve">
<g id="APP_DESIGN">
</g>
<g id="ECOMMERCE">
</g>
<g id="WORDPRESS">
</g>
<path fill="#FFFFFF" d="M-56.5,540.5C-56.5,476.3-5,424.1,59,423v-45h-208v325H59v-45C-5,656.9-56.5,604.7-56.5,540.5z"/>
<path fill="#FFFFFF" d="M178.5,540.5C178.5,476.3,127,424.1,63,423v-45h208v325H63v-45C127,656.9,178.5,604.7,178.5,540.5z"/>
<g>
	<path fill="#FFFFFF" d="M43.6,578.7v-24.3c0-1.2,0.2-2.4,0.6-3.4H33.8v0h-2.4c1.2,2,1.9,4.4,1.9,6.9v31.2h13.9v-2.9
		c-0.2-0.2-0.3-0.4-0.5-0.6C45.5,584.2,43.6,582,43.6,578.7z"/>
	<path fill="#FFFFFF" d="M92.2,533.6c0-5.7-3.1-10.4-6.9-10.4h-9.8c-0.4,3.3-0.6,6.8-0.6,10.4c0,3.6,0.2,7.1,0.6,10.4h9.8
		C89.1,544,92.2,539.3,92.2,533.6z"/>
	<path fill="#FFFFFF" d="M40.2,533.6c0-4.2,1.4-7.9,3.5-10.4H19.4c-3.8,0-6.9,4.7-6.9,10.4c0,5.8,3.1,10.4,6.9,10.4h24.3
		C41.6,541.4,40.2,537.8,40.2,533.6z"/>
	<path fill="#FFFFFF" d="M69.4,516.2c-5.4,4.4-11.5,7-18.1,7h-0.8c-3.8,0-6.9,4.7-6.9,10.4c0,5.8,3.1,10.4,6.9,10.4v0h0.8
		c6.5,0,12.7,2.6,18.1,7c-1-5.6-1.5-11.5-1.5-17.5C67.9,527.7,68.4,521.7,69.4,516.2z"/>
	<path fill="#FFFFFF" d="M61,426.8c-62.8,0-113.8,50.9-113.8,113.8S-1.8,654.2,61,654.2s113.8-50.9,113.8-113.8
		S123.8,426.8,61,426.8z M92.2,582.1c-7.1,0-12.7-4.9-16.7-12.4l-0.1,0C70,559.1,62,552.1,53.3,551.1c-0.3,0.1-0.6,0.1-0.9,0.3
		c0,0,0,0,0,0c0,0,0,0,0,0.1c-0.4,0.3-0.8,0.6-1.1,1c-0.1,0.1-0.1,0.2-0.2,0.3c-0.2,0.4-0.4,0.9-0.4,1.4c0,0.1-0.1,0.1-0.1,0.2v24.3
		c0,1.9,3.5,3.5,3.5,6.9v3.5c0,3.8-3.1,6.9-6.9,6.9H33.2c-3.8,0-6.9-3.1-6.9-6.9v-31.2c0-3.8-3.1-6.9-6.9-6.9
		c-7.8,0-13.9-7.6-13.9-17.3c0-9.7,6.1-17.3,13.9-17.3h14.4h15.3h2.3c9.5,0,18.2-7.4,24-18.8l0.1,0c4-7.5,9.6-12.4,16.7-12.4
		c15.9,0,24.3,24.4,24.3,48.6C116.5,557.7,108.2,582.1,92.2,582.1z"/>
	<path fill="#FFFFFF" d="M92.2,491.9c-7,0-13,10-15.8,24.3h8.8c7.8,0,13.9,7.6,13.9,17.3c0,9.7-6.1,17.3-13.9,17.3h-8.8
		c2.7,14.3,8.8,24.3,15.8,24.3c9.6,0,17.3-18.6,17.3-41.6C109.6,510.6,101.8,491.9,92.2,491.9z"/>
</g>
<g>
	<rect x="-149" y="377.8" fill="#FFFFFF" width="208" height="3"/>
	<rect x="63" y="377.8" fill="#FFFFFF" width="208" height="3"/>
</g>
</svg>
