<?xml version="1.0" encoding="utf-8"?>
<!-- Generator: Adobe Illustrator 16.0.4, SVG Export Plug-In . SVG Version: 6.00 Build 0)  -->
<!DOCTYPE svg PUBLIC "-//W3C//DTD SVG 1.1//EN" "http://www.w3.org/Graphics/SVG/1.1/DTD/svg11.dtd">
<svg version="1.1" id="Layer_1" xmlns="http://www.w3.org/2000/svg" xmlns:xlink="http://www.w3.org/1999/xlink" x="0px" y="0px"
	 width="100px" height="60px" viewBox="0 0 100 60" enable-background="new 0 0 100 60" xml:space="preserve">
<g>
	<path fill="#FFFFFF" d="M54.253,26.838c-2.604-2.233-6.527-1.933-8.759,0.674c-2.233,2.604-1.934,6.527,0.674,8.762
		c2.605,2.231,6.526,1.931,8.76-0.676C57.161,32.992,56.86,29.069,54.253,26.838z M50.211,28.448c-1.717,0-3.108,1.391-3.108,3.106
		v0.001c0,0.285-0.231,0.518-0.517,0.518c-0.288,0-0.517-0.232-0.517-0.518v-0.001c0-2.287,1.854-4.142,4.142-4.142
		c0.284,0,0.518,0.232,0.518,0.518C50.729,28.216,50.495,28.448,50.211,28.448z"/>
	<path fill="#FFFFFF" d="M63.844,24.318l-5.64-0.938l-1.854-4.638c-0.159-0.393-0.54-0.651-0.962-0.651H45.034
		c-0.425,0-0.807,0.258-0.963,0.651l-1.856,4.638l-5.636,0.938c-0.501,0.083-0.867,0.515-0.867,1.022v15.532
		c0,0.572,0.463,1.036,1.036,1.036h26.926c0.57,0,1.033-0.464,1.033-1.036V25.34C64.708,24.833,64.342,24.402,63.844,24.318z
		 M50.211,39.839c-4.577,0-8.286-3.708-8.286-8.284c0-4.576,3.709-8.285,8.286-8.285c4.575,0,8.285,3.709,8.285,8.285
		C58.496,36.131,54.786,39.839,50.211,39.839z"/>
	<path fill="#FFFFFF" d="M50,2.464C34.792,2.464,22.464,14.792,22.464,30S34.792,57.536,50,57.536
		c15.208,0,27.536-12.328,27.536-27.536S65.208,2.464,50,2.464z M66.78,40.872c0,1.714-1.394,3.107-3.105,3.107H36.749
		c-1.714,0-3.107-1.394-3.107-3.107V25.34c0-1.525,1.092-2.815,2.598-3.064l4.488-0.749l1.421-3.554
		c0.476-1.188,1.608-1.953,2.886-1.953h10.354c1.276,0,2.408,0.765,2.885,1.952l1.421,3.555l4.489,0.749
		c1.504,0.25,2.597,1.54,2.597,3.064V40.872z"/>
</g>
<g>
	<path fill="#FFFFFF" d="M20,30C20,13.432,33.432,0,50,0H18h-8H0v60h10h8h32C33.432,60,20,46.568,20,30z"/>
	<path fill="#FFFFFF" d="M90,0h-8H50c16.568,0,30,13.432,30,30c0,16.568-13.432,30-30,30h32h8h10V0H90z"/>
</g>
</svg>
