<?xml version="1.0" encoding="utf-8"?>
<!-- Generator: Adobe Illustrator 18.1.0, SVG Export Plug-In . SVG Version: 6.00 Build 0)  -->
<svg version="1.1" id="Layer_1" xmlns="http://www.w3.org/2000/svg" xmlns:xlink="http://www.w3.org/1999/xlink" x="0px" y="0px"
	 viewBox="-149 378 420 325" enable-background="new -149 378 420 325" xml:space="preserve">
<g>
	<g>
		<path fill="#FFFFFF" d="M49,573.2L74,570c0.4-1.2,0.8-2.6,1.3-3.9H46.8C47.6,568.6,48.4,571,49,573.2z"/>
		<path fill="#FFFFFF" d="M50.1,576.8c0.8,2.9,1.5,5.1,2.2,6.9l18.2-2.3c0.4-1.3,0.8-2.7,1.3-4.4c0.3-1,0.6-2.2,1-3.2l-22.7,2.8
			C50.1,576.7,50.1,576.8,50.1,576.8z"/>
		<path fill="#FFFFFF" d="M61,591.8c4.3,0,6-0.5,8.2-6.5l-15.5,1.9C55.6,591.4,57.3,591.8,61,591.8z"/>
		<path fill="#FFFFFF" d="M61,489.2c-18.2,0-33,14.8-33,33c0,7.5,4.9,16.3,9.7,24.9c2.2,3.9,4.4,7.8,6.2,11.8h34.2
			c1.8-3.9,4-7.9,6.1-11.8c4.8-8.6,9.7-17.5,9.7-24.9C94,504,79.2,489.2,61,489.2z M61,503.8c-10.1,0-18.3,8.2-18.3,18.3
			c0,1-0.8,1.8-1.8,1.8c-1,0-1.8-0.8-1.8-1.8c0-12.1,9.9-22,22-22c1,0,1.8,0.8,1.8,1.8C62.8,503,62,503.8,61,503.8z"/>
		<path fill="#FFFFFF" d="M61,426.8c-62.8,0-113.8,50.9-113.8,113.8S-1.8,654.2,61,654.2s113.8-50.9,113.8-113.8
			S123.8,426.8,61,426.8z M82.9,566.5c-7.3,20.5-6.3,32.7-21.9,32.7c-15.4,0-14.5-12.3-21.9-32.8c-4.9-13.8-18.4-29.4-18.4-44.2
			c0-22.3,18.1-40.3,40.3-40.3c22.3,0,40.3,18.1,40.3,40.3C101.3,536.8,87.8,552.7,82.9,566.5z"/>
	</g>
	<g id="APP_DESIGN">
	</g>
	<g id="ECOMMERCE">
	</g>
	<g id="WORDPRESS">
	</g>
	<path fill="#FFFFFF" d="M-56.5,540.5C-56.5,476.3-5,424.1,59,423v-45h-208v325H59v-45C-5,656.9-56.5,604.7-56.5,540.5z"/>
	<path fill="#FFFFFF" d="M178.5,540.5C178.5,476.3,127,424.1,63,423v-45h208v325H63v-45C127,656.9,178.5,604.7,178.5,540.5z"/>
</g>
<g>
	<rect x="-149" y="377.8" fill="#FFFFFF" width="208" height="3"/>
	<rect x="63" y="377.8" fill="#FFFFFF" width="208" height="3"/>
</g>
</svg>
