<?xml version="1.0" encoding="utf-8"?>
<!-- Generator: Adobe Illustrator 16.0.4, SVG Export Plug-In . SVG Version: 6.00 Build 0)  -->
<!DOCTYPE svg PUBLIC "-//W3C//DTD SVG 1.1//EN" "http://www.w3.org/Graphics/SVG/1.1/DTD/svg11.dtd">
<svg version="1.1" id="Layer_1" xmlns="http://www.w3.org/2000/svg" xmlns:xlink="http://www.w3.org/1999/xlink" x="0px" y="0px"
	 width="100px" height="60px" viewBox="0 0 100 60" enable-background="new 0 0 100 60" xml:space="preserve">
<g>
	<path fill="#FFFFFF" d="M51.348,22.137c1.112,0,2.02-0.906,2.02-2.019c0-1.114-0.907-2.02-2.02-2.02c-1.113,0-2.02,0.906-2.02,2.02
		C49.328,21.231,50.234,22.137,51.348,22.137z"/>
	<path fill="#FFFFFF" d="M55.054,26.744H39.051c-0.465,0-0.842,0.375-0.842,0.84v13.476c0,0.465,0.377,0.842,0.842,0.842h16.003
		c0.463,0,0.844-0.377,0.844-0.842V27.584C55.897,27.121,55.517,26.744,55.054,26.744z"/>
	<polygon fill="#FFFFFF" points="60.948,27.584 56.738,31.796 56.738,36.851 57.58,37.691 57.58,37.717 60.948,41.086 
		61.043,41.086 61.791,41.086 61.791,27.584 61.043,27.584 	"/>
	<circle fill="#FFFFFF" cx="42.7" cy="20.118" r="2.02"/>
	<path fill="#FFFFFF" d="M50,2.42C34.768,2.42,22.42,14.768,22.42,30c0,15.232,12.348,27.58,27.58,27.58
		c15.232,0,27.58-12.348,27.58-27.58C77.58,14.768,65.232,2.42,50,2.42z M51.348,16.412c2.047,0,3.706,1.659,3.706,3.706
		c0,2.046-1.659,3.706-3.706,3.706c-2.046,0-3.705-1.66-3.705-3.706C47.643,18.071,49.301,16.412,51.348,16.412z M42.7,16.412
		c2.047,0,3.707,1.659,3.707,3.706c0,2.046-1.659,3.706-3.707,3.706c-2.046,0-3.705-1.66-3.705-3.706
		C38.996,18.071,40.654,16.412,42.7,16.412z M63.476,41.086c0,0.929-0.755,1.683-1.685,1.683h-0.748
		c-0.441,0-0.865-0.174-1.181-0.484l-2.282-2.251v1.027c0,1.396-1.132,2.526-2.526,2.526H39.051c-1.396,0-2.527-1.131-2.527-2.526
		v-7.603v-5.874c0-1.393,1.134-2.526,2.527-2.526h16.003c1.395,0,2.526,1.131,2.526,2.526v1.052l2.282-2.249
		c0.315-0.312,0.739-0.486,1.181-0.486h0.748c0.93,0,1.685,0.754,1.685,1.684V41.086z"/>
</g>
<g>
	<path fill="#FFFFFF" d="M20,30C20,13.432,33.432,0,50,0H18h-8H0v60h10h8h32C33.432,60,20,46.568,20,30z"/>
	<path fill="#FFFFFF" d="M90,0h-8H50c16.568,0,30,13.432,30,30c0,16.568-13.432,30-30,30h32h8h10V0H90z"/>
</g>
</svg>
