<?xml version="1.0" encoding="utf-8"?>
<!-- Generator: Adobe Illustrator 16.0.4, SVG Export Plug-In . SVG Version: 6.00 Build 0)  -->
<!DOCTYPE svg PUBLIC "-//W3C//DTD SVG 1.1//EN" "http://www.w3.org/Graphics/SVG/1.1/DTD/svg11.dtd">
<svg version="1.1" id="Layer_1" xmlns="http://www.w3.org/2000/svg" xmlns:xlink="http://www.w3.org/1999/xlink" x="0px" y="0px"
	 width="100px" height="60px" viewBox="0 0 100 60" enable-background="new 0 0 100 60" xml:space="preserve">
<g>
	<rect x="39.962" y="20.872" fill="#FFFFFF" width="20.076" height="12.779"/>
	<path fill="#FFFFFF" d="M61.862,18.137H38.138c-0.504,0-0.913,0.41-0.913,0.913v18.252c0,0.504,0.409,0.913,0.913,0.913h8.212
		h7.299h8.213c0.502,0,0.913-0.409,0.913-0.913V19.049C62.775,18.546,62.364,18.137,61.862,18.137z M60.949,33.648
		c0,0.505-0.406,0.912-0.911,0.912H39.962c-0.504,0-0.913-0.407-0.913-0.912V20.872c0-0.505,0.408-0.909,0.913-0.909l20.076-0.004
		c0.505,0,0.911,0.408,0.911,0.913V33.648z"/>
	<path fill="#FFFFFF" d="M50,2.418C34.767,2.418,22.418,14.767,22.418,30c0,15.233,12.349,27.582,27.582,27.582
		c15.233,0,27.582-12.349,27.582-27.582C77.582,14.767,65.233,2.418,50,2.418z M64.601,37.302c0,1.509-1.222,2.732-2.729,2.737
		h-9.133v1.11l5.695,0.739c0.406,0.103,0.691,0.468,0.691,0.887c0,0.504-0.408,0.912-0.912,0.912H41.788
		c-0.505,0-0.913-0.408-0.913-0.912c0-0.419,0.286-0.784,0.692-0.887l5.696-0.739v-1.11h-9.133
		c-1.508-0.005-2.729-1.229-2.729-2.737V19.049c0-1.512,1.225-2.737,2.738-2.737h23.725c1.512,0,2.738,1.226,2.738,2.737V37.302z"/>
</g>
<g>
	<path fill="#FFFFFF" d="M20,30C20,13.432,33.432,0,50,0H18h-8H0v60h10h8h32C33.432,60,20,46.568,20,30z"/>
	<path fill="#FFFFFF" d="M90,0h-8H50c16.568,0,30,13.432,30,30c0,16.568-13.432,30-30,30h32h8h10V0H90z"/>
</g>
</svg>
