<?xml version="1.0" encoding="utf-8"?>
<!-- Generator: Adobe Illustrator 18.1.0, SVG Export Plug-In . SVG Version: 6.00 Build 0)  -->
<svg version="1.1" id="Layer_1" xmlns="http://www.w3.org/2000/svg" xmlns:xlink="http://www.w3.org/1999/xlink" x="0px" y="0px"
	 viewBox="-149 378 420 325" enable-background="new -149 378 420 325" xml:space="preserve">
<g id="APP_DESIGN">
</g>
<g id="ECOMMERCE">
</g>
<g id="WORDPRESS">
</g>
<g>
	<path fill="#FFFFFF" d="M-56.5,540.5C-56.5,476.3-5,424.1,59,423v-45h-208v325H59v-45C-5,656.9-56.5,604.7-56.5,540.5z"/>
	<path fill="#FFFFFF" d="M178.5,540.5C178.5,476.3,127,424.1,63,423v-45h208v325H63v-45C127,656.9,178.5,604.7,178.5,540.5z"/>
	<g>
		<path fill="#FFFFFF" d="M19.3,552.9c-0.6,0.8-1.2,1.6-1.4,2.5l-3.7,13.2c5,0.2,10,2.4,13.8,6.2c4,4,6.1,9.2,6.1,14.1l13.6-3.6
			c0.5-0.1,0.9-0.4,1.3-0.6c6.4-7.3,5.1-19.5-3.2-27.8C38,549.1,26.7,547.6,19.3,552.9z"/>
		<path fill="#FFFFFF" d="M74.7,510c-6.2-1.5-12.5-0.3-16.8,3.9l-28.3,28.5c3.6,0,7.1,0.8,10.5,2.2L74.7,510z"/>
		<path fill="#FFFFFF" d="M86.3,516.6c-2.3-2.3-5-4.1-7.7-5.3l-35,35c2.7,1.5,5.3,3.2,7.5,5.5c1.9,1.9,3.5,4.1,4.9,6.3l35-35
			C89.8,520.8,88.2,518.6,86.3,516.6z"/>
		<path fill="#FFFFFF" d="M13.2,572.4l-3.9,14c-0.1,0.4-0.3,1.4-0.4,2.1c0,3,2.4,5.5,5.5,5.5c0.8-0.1,2.1-0.4,2.5-0.5l13.7-3.6
			c0.2-4.2-1.5-8.8-5.1-12.4C21.9,573.9,17.4,572.2,13.2,572.4z"/>
		<path fill="#FFFFFF" d="M57.8,561.5c1.4,3.1,2.3,6.3,2.6,9.7c0.1,0.9,0,1.8,0,2.7l28.4-28.6l-0.1-0.1c0,0,0.1,0,0.1-0.1
			c4.7-4.7,5.7-11.7,3.6-18.4L57.8,561.5z"/>
		<path fill="#FFFFFF" d="M61,426.8c-62.8,0-113.8,50.9-113.8,113.8S-1.8,654.2,61,654.2s113.8-50.9,113.8-113.8
			S123.8,426.8,61,426.8z M112.1,532.2l-56,56.5c-1.7,1.7-3.9,3-6.3,3.7l-31.1,8.2c-0.1,0-2.8,0.7-4.3,0.7
			c-7.1,0-12.9-5.8-12.9-12.9c0-1.2,0.6-3.7,0.6-3.8l8.6-31.2c0.7-2.4,2-4.5,3.7-6.3l37.9-38.2l0,0c0,0,0-0.1,0.1-0.1
			c0.1-0.1,0.1-0.1,0.2-0.1l17.9-18c4.4-4.4,10.5-6.9,17.1-6.9c7.8,0,15.8,3.4,21.8,9.5C121.2,504.9,122.3,522,112.1,532.2z"/>
		<path fill="#FFFFFF" d="M87.7,491.1c-4.6,0-8.9,1.7-11.9,4.7l-6.1,6.1c7.9,0,15.8,3.5,21.8,9.4c5.4,5.4,8.7,12.2,9.3,19.3
			c0.1,0.8,0,1.6,0,2.5l6.2-6.2c3.4-3.4,5.1-8.1,4.8-13.3c-0.4-5.5-3-10.9-7.4-15.3C99.7,493.8,93.6,491.1,87.7,491.1z"/>
	</g>
</g>
<g>
	<rect x="-149" y="377.8" fill="#FFFFFF" width="208" height="3"/>
	<rect x="63" y="377.8" fill="#FFFFFF" width="208" height="3"/>
</g>
</svg>
