<?xml version="1.0" encoding="utf-8"?>
<!-- Generator: Adobe Illustrator 16.0.4, SVG Export Plug-In . SVG Version: 6.00 Build 0)  -->
<!DOCTYPE svg PUBLIC "-//W3C//DTD SVG 1.1//EN" "http://www.w3.org/Graphics/SVG/1.1/DTD/svg11.dtd">
<svg version="1.1" id="Layer_1" xmlns="http://www.w3.org/2000/svg" xmlns:xlink="http://www.w3.org/1999/xlink" x="0px" y="0px"
	 width="100px" height="60px" viewBox="0 0 100 60" enable-background="new 0 0 100 60" xml:space="preserve">
<g>
	<path fill="#FFFFFF" d="M20,30C20,13.432,33.432,0,50,0H18h-8H0v60h10h8h32C33.432,60,20,46.568,20,30z"/>
	<path fill="#FFFFFF" d="M90,0h-8H50c16.568,0,30,13.432,30,30c0,16.568-13.432,30-30,30h32h8h10V0H90z"/>
</g>
<g>
	<path fill="#FFFFFF" d="M77.582,30c0-15.232-12.35-27.582-27.582-27.582c-15.234,0-27.583,12.35-27.583,27.582
		c0,15.233,12.348,27.583,27.583,27.583C65.232,57.582,77.582,45.232,77.582,30z M66.924,18.314
		C56.318,28.662,55.4,41.752,55.4,41.752c-16.824,0.197-22.324,5.174-22.324,5.174s4.977-5.502,5.172-22.326
		c0,0,13.096-0.918,23.439-11.527l2.619,2.619L66.924,18.314z"/>
	<line fill="none" stroke="#FFFFFF" stroke-width="2" stroke-miterlimit="10" x1="55.236" y1="24.76" x2="31.917" y2="48.086"/>
</g>
</svg>
