<?xml version="1.0" encoding="utf-8"?>
<!-- Generator: Adobe Illustrator 16.0.4, SVG Export Plug-In . SVG Version: 6.00 Build 0)  -->
<!DOCTYPE svg PUBLIC "-//W3C//DTD SVG 1.1//EN" "http://www.w3.org/Graphics/SVG/1.1/DTD/svg11.dtd">
<svg version="1.1" id="Layer_1" xmlns="http://www.w3.org/2000/svg" xmlns:xlink="http://www.w3.org/1999/xlink" x="0px" y="0px"
	 width="100px" height="60px" viewBox="0 0 100 60" enable-background="new 0 0 100 60" xml:space="preserve">
<g>
	<path fill="#FFFFFF" d="M20,30C20,13.432,33.432,0,50,0H18h-8H0v60h10h8h32C33.432,60,20,46.568,20,30z"/>
	<path fill="#FFFFFF" d="M90,0h-8H50c16.568,0,30,13.432,30,30c0,16.568-13.432,30-30,30h32h8h10V0H90z"/>
</g>
<path fill="#FFFFFF" d="M50,2.42C34.768,2.42,22.419,14.768,22.419,30c0,15.232,12.348,27.58,27.581,27.58S77.58,45.232,77.58,30
	C77.58,14.768,65.232,2.42,50,2.42z M52.123,13.625c2.6,0,4.707,2.108,4.707,4.706c0,2.601-2.107,4.707-4.707,4.707
	c-2.602,0-4.707-2.106-4.707-4.707C47.416,15.733,49.521,13.625,52.123,13.625z M41.111,13.627c2.6,0,4.707,2.106,4.707,4.704
	c0,2.601-2.107,4.707-4.707,4.707c-2.598,0-4.705-2.106-4.705-4.707C36.406,15.733,38.514,13.627,41.111,13.627z M66.053,33.925
	v5.373l-6.42-3.567v2.754v4.037c0,0.687-0.584,0.687-0.584,0.687H46.793H34.535c0,0-0.586,0-0.586-0.687v-4.037v-4.56v-4.562v-4.038
	c0-0.683,0.586-0.683,0.586-0.683h12.258h12.256c0,0,0.584,0,0.584,0.683v4.038v2.754l6.42-3.564V33.925z"/>
</svg>
