<?xml version="1.0" encoding="utf-8"?>
<!-- Generator: Adobe Illustrator 16.0.4, SVG Export Plug-In . SVG Version: 6.00 Build 0)  -->
<!DOCTYPE svg PUBLIC "-//W3C//DTD SVG 1.1//EN" "http://www.w3.org/Graphics/SVG/1.1/DTD/svg11.dtd">
<svg version="1.1" id="Layer_1" xmlns="http://www.w3.org/2000/svg" xmlns:xlink="http://www.w3.org/1999/xlink" x="0px" y="0px"
	 width="100px" height="60px" viewBox="0 0 100 60" enable-background="new 0 0 100 60" xml:space="preserve">
<g>
	<path fill="#FFFFFF" d="M47.099,37.921l6.045-0.756c0.094-0.302,0.203-0.621,0.312-0.941h-6.905
		C46.754,36.821,46.937,37.385,47.099,37.921z"/>
	<path fill="#FFFFFF" d="M47.365,38.805c0.204,0.694,0.375,1.228,0.531,1.684l4.41-0.553c0.099-0.314,0.202-0.661,0.318-1.062
		c0.072-0.246,0.156-0.521,0.234-0.784l-5.501,0.688C47.359,38.785,47.362,38.797,47.365,38.805z"/>
	<path fill="#FFFFFF" d="M50,42.447c1.05,0,1.446-0.113,1.992-1.582l-3.768,0.472C48.685,42.345,49.099,42.447,50,42.447z"/>
	<path fill="#FFFFFF" d="M50,17.552c-4.413,0-8.002,3.59-8.002,8.002c0,1.808,1.199,3.955,2.36,6.032
		c0.524,0.938,1.056,1.899,1.498,2.859h8.3c0.438-0.955,0.966-1.913,1.484-2.851c1.163-2.088,2.362-4.248,2.362-6.041
		C58.002,21.142,54.413,17.552,50,17.552z M50,21.109c-2.451,0-4.445,1.994-4.445,4.446c0,0.246-0.199,0.444-0.445,0.444
		c-0.246,0-0.444-0.199-0.444-0.444c0-2.942,2.393-5.334,5.334-5.334c0.246,0,0.444,0.199,0.444,0.444
		C50.444,20.91,50.246,21.109,50,21.109z"/>
	<path fill="#FFFFFF" d="M50,2.417c-15.233,0-27.583,12.35-27.583,27.583S34.767,57.583,50,57.583S77.583,45.233,77.583,30
		S65.233,2.417,50,2.417z M55.309,36.294c-1.782,4.968-1.528,7.932-5.309,7.932c-3.723,0-3.526-2.977-5.307-7.953
		c-1.194-3.335-4.473-7.134-4.473-10.718c0-5.401,4.378-9.781,9.78-9.781c5.401,0,9.78,4.379,9.78,9.781
		C59.78,29.111,56.506,32.95,55.309,36.294z"/>
</g>
<g>
	<path fill="#FFFFFF" d="M20,30C20,13.432,33.432,0,50,0H18h-8H0v60h10h8h32C33.432,60,20,46.568,20,30z"/>
	<path fill="#FFFFFF" d="M90,0h-8H50c16.568,0,30,13.432,30,30c0,16.568-13.432,30-30,30h32h8h10V0H90z"/>
</g>
</svg>
