<?xml version="1.0" encoding="utf-8"?>
<!-- Generator: Adobe Illustrator 16.0.4, SVG Export Plug-In . SVG Version: 6.00 Build 0)  -->
<!DOCTYPE svg PUBLIC "-//W3C//DTD SVG 1.1//EN" "http://www.w3.org/Graphics/SVG/1.1/DTD/svg11.dtd">
<svg version="1.1" id="Layer_1" xmlns="http://www.w3.org/2000/svg" xmlns:xlink="http://www.w3.org/1999/xlink" x="0px" y="0px"
	 width="420px" height="325px" viewBox="0 0 420 325" enable-background="new 0 0 420 325" xml:space="preserve">
<g id="APP_DESIGN">
</g>
<g id="ECOMMERCE">
</g>
<g id="WORDPRESS">
</g>
<path fill="#FFFFFF" d="M92.5,162.5c0-64.225,51.53-116.406,115.5-117.475V0H0v325h208v-45.025
	C144.03,278.906,92.5,226.725,92.5,162.5z"/>
<path fill="#FFFFFF" d="M327.5,162.5c0-64.225-51.529-116.406-115.5-117.475V0h208v325H212v-45.025
	C275.971,278.906,327.5,226.725,327.5,162.5z"/>
<g>
	<path fill="#FFFFFF" d="M227.571,149.438c-10.76-9.223-26.968-7.981-36.183,2.782c-9.227,10.761-7.99,26.967,2.781,36.192
		c10.761,9.219,26.961,7.979,36.184-2.789C239.58,174.862,238.336,158.656,227.571,149.438z M210.871,156.089
		c-7.095,0-12.836,5.745-12.836,12.826v0.007c0,1.181-0.959,2.136-2.135,2.136c-1.188,0-2.14-0.955-2.14-2.136v-0.007
		c0-9.442,7.662-17.104,17.11-17.104c1.177,0,2.139,0.958,2.139,2.139S212.048,156.089,210.871,156.089z"/>
	<path fill="#FFFFFF" d="M267.184,139.031l-23.295-3.881l-7.658-19.155c-0.654-1.624-2.227-2.688-3.971-2.688h-42.777
		c-1.756,0-3.328,1.064-3.979,2.688l-7.662,19.155l-23.283,3.881c-2.064,0.342-3.58,2.127-3.58,4.218v64.165
		c0,2.361,1.914,4.278,4.279,4.278h111.227c2.365,0,4.275-1.917,4.275-4.278v-64.165
		C270.76,141.158,269.248,139.373,267.184,139.031z M210.871,203.143c-18.907,0-34.225-15.316-34.225-34.221
		c0-18.905,15.317-34.223,34.225-34.223c18.9,0,34.225,15.317,34.225,34.223C245.096,187.826,229.771,203.143,210.871,203.143z"/>
	<path fill="#FFFFFF" d="M210,48.75c-62.822,0-113.75,50.928-113.75,113.75S147.178,276.25,210,276.25s113.75-50.928,113.75-113.75
		S272.822,48.75,210,48.75z M279.316,207.414c0,7.076-5.756,12.836-12.832,12.836H155.258c-7.076,0-12.832-5.76-12.832-12.836
		v-64.165c0-6.301,4.512-11.625,10.727-12.655l18.543-3.094l5.865-14.682c1.97-4.906,6.65-8.068,11.922-8.068h42.777
		c5.271,0,9.952,3.162,11.915,8.064l5.872,14.686l18.543,3.094c6.215,1.03,10.727,6.354,10.727,12.655V207.414z"/>
</g>
</svg>
