<?xml version="1.0" encoding="utf-8"?>
<!-- Generator: Adobe Illustrator 16.0.4, SVG Export Plug-In . SVG Version: 6.00 Build 0)  -->
<!DOCTYPE svg PUBLIC "-//W3C//DTD SVG 1.1//EN" "http://www.w3.org/Graphics/SVG/1.1/DTD/svg11.dtd">
<svg version="1.1" id="Layer_1" xmlns="http://www.w3.org/2000/svg" xmlns:xlink="http://www.w3.org/1999/xlink" x="0px" y="0px"
	 width="420px" height="325px" viewBox="0 0 420 325" enable-background="new 0 0 420 325" xml:space="preserve">
<g id="APP_DESIGN">
</g>
<g id="ECOMMERCE">
</g>
<g id="WORDPRESS">
</g>
<path fill="#FFFFFF" d="M92.5,162.5c0-64.225,51.53-116.406,115.5-117.475V0H0v325h208v-45.025
	C144.03,278.906,92.5,226.725,92.5,162.5z"/>
<path fill="#FFFFFF" d="M327.5,162.5c0-64.225-51.529-116.406-115.5-117.475V0h208v325H212v-45.025
	C275.971,278.906,327.5,226.725,327.5,162.5z"/>
<g>
	<path fill="#FFFFFF" d="M129.566,82.066c-44.422,44.422-44.422,116.445,0,160.868c44.423,44.422,116.445,44.422,160.868,0
		c44.422-44.423,44.422-116.444,0-160.868C246.012,37.645,173.989,37.645,129.566,82.066z M269.658,205.02l-8.569,8.568
		l-8.567,8.569c-33.848-34.702-76.687-37.7-76.687-37.7c-0.644-55.051-16.923-73.046-16.923-73.046s17.994,16.28,73.044,16.924
		C231.956,128.335,234.956,171.173,269.658,205.02z"/>
	<line fill="none" stroke="#FFFFFF" stroke-width="4" stroke-miterlimit="10" x1="240.406" y1="216.594" x2="263.74" y2="193.259"/>
	<circle fill="#FFFFFF" cx="225.025" cy="177.525" r="4"/>
	
		<line fill="none" stroke="#FFFFFF" stroke-width="4" stroke-miterlimit="10" x1="225.025" y1="177.525" x2="158.912" y2="111.411"/>
</g>
</svg>
