<?xml version="1.0" encoding="utf-8"?>
<!-- Generator: Adobe Illustrator 16.0.4, SVG Export Plug-In . SVG Version: 6.00 Build 0)  -->
<!DOCTYPE svg PUBLIC "-//W3C//DTD SVG 1.1//EN" "http://www.w3.org/Graphics/SVG/1.1/DTD/svg11.dtd">
<svg version="1.1" id="Layer_1" xmlns="http://www.w3.org/2000/svg" xmlns:xlink="http://www.w3.org/1999/xlink" x="0px" y="0px"
	 width="420px" height="325px" viewBox="0 0 420 325" enable-background="new 0 0 420 325" xml:space="preserve">
<g>
	<path fill="#FFFFFF" d="M198.033,195.163l24.931-3.115c0.387-1.246,0.838-2.563,1.289-3.881h-28.476
		C196.615,190.63,197.367,192.958,198.033,195.163z"/>
	<path fill="#FFFFFF" d="M199.132,198.809c0.845,2.864,1.543,5.063,2.191,6.943l18.182-2.274c0.408-1.3,0.838-2.731,1.317-4.379
		c0.301-1.017,0.645-2.155,0.967-3.24l-22.689,2.836C199.107,198.729,199.121,198.772,199.132,198.809z"/>
	<path fill="#FFFFFF" d="M210,213.833c4.328,0,5.967-0.466,8.216-6.527l-15.539,1.944C204.575,213.407,206.286,213.833,210,213.833z
		"/>
	<path fill="#FFFFFF" d="M210,111.167c-18.197,0-33,14.803-33,33c0,7.455,4.945,16.311,9.729,24.871
		c2.163,3.875,4.354,7.839,6.18,11.795h34.223c1.812-3.938,3.988-7.888,6.13-11.752c4.791-8.611,9.739-17.517,9.739-24.914
		C243.001,125.97,228.198,111.167,210,111.167z M210,125.834c-10.108,0-18.333,8.225-18.333,18.333c0,1.014-0.82,1.833-1.833,1.833
		c-1.014,0-1.833-0.819-1.833-1.833c0-12.132,9.869-22,22-22c1.013,0,1.833,0.82,1.833,1.833
		C211.833,125.014,211.013,125.834,210,125.834z"/>
	<path fill="#FFFFFF" d="M210,48.75c-62.822,0-113.75,50.928-113.75,113.75S147.178,276.25,210,276.25s113.75-50.928,113.75-113.75
		S272.822,48.75,210,48.75z M231.887,188.453c-7.348,20.489-6.302,32.713-21.887,32.713c-15.354,0-14.542-12.277-21.885-32.799
		c-4.924-13.757-18.448-29.419-18.448-44.2c0-22.275,18.058-40.333,40.333-40.333c22.274,0,40.334,18.058,40.334,40.333
		C250.334,158.834,236.828,174.667,231.887,188.453z"/>
</g>
<g id="APP_DESIGN">
</g>
<g id="ECOMMERCE">
</g>
<g id="WORDPRESS">
</g>
<path fill="#FFFFFF" d="M92.5,162.5c0-64.225,51.53-116.406,115.5-117.475V0H0v325h208v-45.025
	C144.03,278.906,92.5,226.725,92.5,162.5z"/>
<path fill="#FFFFFF" d="M327.5,162.5c0-64.225-51.529-116.406-115.5-117.475V0h208v325H212v-45.025
	C275.971,278.906,327.5,226.725,327.5,162.5z"/>
</svg>
