<?xml version="1.0" encoding="utf-8"?>
<!-- Generator: Adobe Illustrator 16.0.4, SVG Export Plug-In . SVG Version: 6.00 Build 0)  -->
<!DOCTYPE svg PUBLIC "-//W3C//DTD SVG 1.1//EN" "http://www.w3.org/Graphics/SVG/1.1/DTD/svg11.dtd">
<svg version="1.1" id="Layer_1" xmlns="http://www.w3.org/2000/svg" xmlns:xlink="http://www.w3.org/1999/xlink" x="0px" y="0px"
	 width="100px" height="60px" viewBox="0 0 100 60" enable-background="new 0 0 100 60" xml:space="preserve">
<g>
	<path fill="#FFFFFF" d="M20,30C20,13.432,33.432,0,50,0H18h-8H0v60h10h8h32C33.432,60,20,46.568,20,30z"/>
	<path fill="#FFFFFF" d="M90,0h-8H50c16.568,0,30,13.432,30,30c0,16.568-13.432,30-30,30h32h8h10V0H90z"/>
</g>
<g>
	<g>
		<path fill="#FFFFFF" d="M43.866,35.938l-5.839-5.422l5.839-5.414l1.351,1.508l-4.297,3.886l4.297,3.932L43.866,35.938z"/>
		<path fill="#FFFFFF" d="M47.8,37.771h-2.053l6.047-15.543h2.063L47.8,37.771z"/>
		<path fill="#FFFFFF" d="M56.133,25.104l5.842,5.412l-5.842,5.424l-1.341-1.508l4.289-3.896l-4.289-3.924L56.133,25.104z"/>
	</g>
	<path fill="#FFFFFF" d="M50,2.417c-15.232,0-27.582,12.35-27.582,27.584c0,15.231,12.352,27.582,27.582,27.582
		c15.232,0,27.582-12.351,27.582-27.582C77.582,14.767,65.232,2.417,50,2.417z M67.477,24.68V30v5.318v4.709
		c0,0.797-0.795,0.797-0.795,0.797H50H33.32c0,0-0.797,0-0.797-0.797v-4.709V30v-5.32v-4.707c0-0.797,0.797-0.797,0.797-0.797H50
		h16.682c0,0,0.795,0,0.795,0.797V24.68z"/>
</g>
</svg>
