<?xml version="1.0" encoding="utf-8"?>
<!-- Generator: Adobe Illustrator 16.0.4, SVG Export Plug-In . SVG Version: 6.00 Build 0)  -->
<!DOCTYPE svg PUBLIC "-//W3C//DTD SVG 1.1//EN" "http://www.w3.org/Graphics/SVG/1.1/DTD/svg11.dtd">
<svg version="1.1" id="Layer_1" xmlns="http://www.w3.org/2000/svg" xmlns:xlink="http://www.w3.org/1999/xlink" x="0px" y="0px"
	 width="420px" height="325px" viewBox="0 0 420 325" enable-background="new 0 0 420 325" xml:space="preserve">
<g>
	<rect x="168.604" y="124.855" fill="#FFFFFF" width="82.795" height="52.705"/>
	<path fill="#FFFFFF" d="M258.922,113.577h-97.844c-2.08,0-3.764,1.687-3.764,3.763v75.273c0,2.08,1.684,3.764,3.764,3.764h33.869
		h30.105h33.869c2.072,0,3.764-1.684,3.764-3.764V117.34C262.686,115.264,260.994,113.577,258.922,113.577z M255.158,177.546
		c0,2.08-1.679,3.764-3.759,3.764h-82.795c-2.08,0-3.764-1.684-3.764-3.764v-52.69c0-2.08,1.684-3.748,3.764-3.748l82.795-0.015
		c2.08,0,3.759,1.683,3.759,3.763V177.546z"/>
	<path fill="#FFFFFF" d="M210,48.75c-62.822,0-113.75,50.928-113.75,113.75S147.178,276.25,210,276.25s113.75-50.928,113.75-113.75
		S272.822,48.75,210,48.75z M270.212,192.613c0,6.226-5.035,11.268-11.253,11.29h-37.666v4.579l23.487,3.051
		c1.676,0.418,2.852,1.926,2.852,3.652c0,2.08-1.683,3.764-3.763,3.764h-67.738c-2.08,0-3.764-1.684-3.764-3.764
		c0-1.727,1.177-3.234,2.853-3.652l23.49-3.051v-4.579h-37.669c-6.218-0.022-11.253-5.064-11.253-11.29V117.34
		c0-6.236,5.05-11.289,11.29-11.289h97.844c6.232,0,11.29,5.053,11.29,11.289V192.613z"/>
</g>
<g id="APP_DESIGN">
</g>
<g id="ECOMMERCE">
</g>
<g id="WORDPRESS">
</g>
<path fill="#FFFFFF" d="M92.5,162.5c0-64.225,51.53-116.406,115.5-117.475V0H0v325h208v-45.025
	C144.03,278.906,92.5,226.725,92.5,162.5z"/>
<path fill="#FFFFFF" d="M327.5,162.5c0-64.225-51.529-116.406-115.5-117.475V0h208v325H212v-45.025
	C275.971,278.906,327.5,226.725,327.5,162.5z"/>
</svg>
