<?xml version="1.0" encoding="utf-8"?>
<!-- Generator: Adobe Illustrator 16.0.4, SVG Export Plug-In . SVG Version: 6.00 Build 0)  -->
<!DOCTYPE svg PUBLIC "-//W3C//DTD SVG 1.1//EN" "http://www.w3.org/Graphics/SVG/1.1/DTD/svg11.dtd">
<svg version="1.1" id="Layer_1" xmlns="http://www.w3.org/2000/svg" xmlns:xlink="http://www.w3.org/1999/xlink" x="0px" y="0px"
	 width="100px" height="60px" viewBox="0 0 100 60" enable-background="new 0 0 100 60" xml:space="preserve">
<g>
	<path fill="#FFFFFF" d="M20,30C20,13.432,33.432,0,50,0H18h-8H0v60h10h8h32C33.432,60,20,46.568,20,30z"/>
	<path fill="#FFFFFF" d="M90,0h-8H50c16.568,0,30,13.432,30,30c0,16.568-13.432,30-30,30h32h8h10V0H90z"/>
</g>
<g>
	<circle fill="#FFFFFF" cx="50.002" cy="31.75" r="5.619"/>
	<path fill="#FFFFFF" d="M40.482,21.438h-2.441l0,0h-2.443c0,0-0.117,0-0.117,0.117v0.688v0.78v0.778v0.689
		c0,0.116,0.117,0.116,0.117,0.116h2.443h2.441c0,0,0.117,0,0.117-0.116v-0.689v-0.778v-0.78v-0.688
		C40.598,21.438,40.482,21.438,40.482,21.438z"/>
	<path fill="#FFFFFF" d="M50,2.417c-15.234,0-27.583,12.35-27.583,27.584c0,15.231,12.35,27.582,27.583,27.582
		s27.582-12.351,27.582-27.582C77.582,14.767,65.232,2.417,50,2.417z M67.477,24.68V30v5.318v4.709c0,0.797-0.795,0.797-0.795,0.797
		H50H33.32c0,0-0.797,0-0.797-0.797v-4.709V30v-5.32v-4.707c0-0.797,0.797-0.797,0.797-0.797H50h16.68c0,0,0.797,0,0.797,0.797
		V24.68L67.477,24.68z"/>
</g>
</svg>
