<?xml version="1.0" encoding="utf-8"?>
<!-- Generator: Adobe Illustrator 16.0.4, SVG Export Plug-In . SVG Version: 6.00 Build 0)  -->
<!DOCTYPE svg PUBLIC "-//W3C//DTD SVG 1.1//EN" "http://www.w3.org/Graphics/SVG/1.1/DTD/svg11.dtd">
<svg version="1.1" id="Layer_1" xmlns="http://www.w3.org/2000/svg" xmlns:xlink="http://www.w3.org/1999/xlink" x="0px" y="0px"
	 width="100px" height="60px" viewBox="0 0 100 60" enable-background="new 0 0 100 60" xml:space="preserve">
<g>
	<path fill="#FFFFFF" d="M20,30C20,13.432,33.432,0,50,0H18h-8H0v60h10h8h32C33.432,60,20,46.568,20,30z"/>
	<path fill="#FFFFFF" d="M90,0h-8H50c16.568,0,30,13.432,30,30c0,16.568-13.432,30-30,30h32h8h10V0H90z"/>
</g>
<g>
	<path fill="#FFFFFF" d="M50,2.417c-15.234,0-27.583,12.35-27.583,27.583c0,15.232,12.348,27.582,27.583,27.582
		c15.232,0,27.582-12.35,27.582-27.582C77.582,14.768,65.232,2.417,50,2.417z M64.307,44.309l-2.619,2.619
		C51.344,36.318,38.248,35.4,38.248,35.4c-0.195-16.825-5.172-22.326-5.172-22.326s5.5,4.976,22.324,5.173
		c0,0,0.918,13.09,11.523,23.438L64.307,44.309z"/>
	<line fill="none" stroke="#FFFFFF" stroke-width="2" stroke-miterlimit="10" x1="31.917" y1="11.915" x2="55.236" y2="35.24"/>
</g>
</svg>
