<?xml version="1.0" encoding="utf-8"?>
<!-- Generator: Adobe Illustrator 16.0.4, SVG Export Plug-In . SVG Version: 6.00 Build 0)  -->
<!DOCTYPE svg PUBLIC "-//W3C//DTD SVG 1.1//EN" "http://www.w3.org/Graphics/SVG/1.1/DTD/svg11.dtd">
<svg version="1.1" id="Layer_1" xmlns="http://www.w3.org/2000/svg" xmlns:xlink="http://www.w3.org/1999/xlink" x="0px" y="0px"
	 width="420px" height="325px" viewBox="0 0 420 325" enable-background="new 0 0 420 325" xml:space="preserve">
<g id="APP_DESIGN">
</g>
<g id="ECOMMERCE">
</g>
<g id="WORDPRESS">
</g>
<path fill="#FFFFFF" d="M92.5,162.5c0-64.225,51.53-116.406,115.5-117.475V0H0v325h208v-45.025
	C144.03,278.906,92.5,226.725,92.5,162.5z"/>
<path fill="#FFFFFF" d="M327.5,162.5c0-64.225-51.529-116.406-115.5-117.475V0h208v325H212v-45.025
	C275.971,278.906,327.5,226.725,327.5,162.5z"/>
<g>
	<path fill="#FFFFFF" d="M290.434,242.934c44.422-44.423,44.422-116.444,0-160.867c-44.423-44.422-116.445-44.422-160.868,0
		c-44.422,44.423-44.422,116.445,0,160.867C173.989,287.355,246.012,287.355,290.434,242.934z M231.956,196.665
		c-55.05,0.644-73.044,16.924-73.044,16.924s16.279-17.995,16.923-73.046c0,0,42.839-2.998,76.687-37.7l8.567,8.569l8.569,8.568
		C234.956,153.827,231.956,196.665,231.956,196.665z"/>
	<line fill="none" stroke="#FFFFFF" stroke-width="4" stroke-miterlimit="10" x1="263.74" y1="131.741" x2="240.406" y2="108.406"/>
	<circle fill="#FFFFFF" cx="225.025" cy="147.475" r="4"/>
	
		<line fill="none" stroke="#FFFFFF" stroke-width="4" stroke-miterlimit="10" x1="158.912" y1="213.589" x2="225.025" y2="147.475"/>
</g>
</svg>
