<?xml version="1.0" encoding="utf-8"?>
<!-- Generator: Adobe Illustrator 16.0.4, SVG Export Plug-In . SVG Version: 6.00 Build 0)  -->
<!DOCTYPE svg PUBLIC "-//W3C//DTD SVG 1.1//EN" "http://www.w3.org/Graphics/SVG/1.1/DTD/svg11.dtd">
<svg version="1.1" id="Layer_1" xmlns="http://www.w3.org/2000/svg" xmlns:xlink="http://www.w3.org/1999/xlink" x="0px" y="0px"
	 width="420px" height="325px" viewBox="0 0 420 325" enable-background="new 0 0 420 325" xml:space="preserve">
<g id="APP_DESIGN">
</g>
<g id="ECOMMERCE">
</g>
<g id="WORDPRESS">
</g>
<path fill="#FFFFFF" d="M92.5,162.5c0-64.225,51.53-116.406,115.5-117.475V0H0v325h208v-45.025
	C144.03,278.906,92.5,226.725,92.5,162.5z"/>
<path fill="#FFFFFF" d="M327.5,162.5c0-64.225-51.529-116.406-115.5-117.475V0h208v325H212v-45.025
	C275.971,278.906,327.5,226.725,327.5,162.5z"/>
<g>
	<path fill="#FFFFFF" d="M192.635,200.656v-24.281c0-1.207,0.217-2.355,0.589-3.433h-10.432v-0.036h-2.425
		c1.186,2.045,1.861,4.408,1.861,6.938v31.219h13.875v-2.941c-0.155-0.202-0.333-0.391-0.488-0.578
		C194.506,206.213,192.635,203.995,192.635,200.656z"/>
	<path fill="#FFFFFF" d="M241.219,155.562c0-5.745-3.111-10.406-6.938-10.406h-9.839c-0.357,3.332-0.567,6.808-0.567,10.406
		c0,3.606,0.21,7.075,0.567,10.406h9.839C238.107,165.969,241.219,161.315,241.219,155.562z"/>
	<path fill="#FFFFFF" d="M189.188,155.562c0-4.206,1.362-7.881,3.516-10.406h-24.328c-3.834,0-6.938,4.661-6.938,10.406
		c0,5.752,3.104,10.406,6.938,10.406h24.328C190.55,163.446,189.188,159.775,189.188,155.562z"/>
	<path fill="#FFFFFF" d="M218.434,138.157c-5.392,4.426-11.516,6.999-18.06,6.999h-0.78c-3.834,0-6.938,4.661-6.938,10.406
		c0,5.752,3.104,10.406,6.938,10.406v0.036h0.78c6.544,0,12.676,2.58,18.066,7.01c-0.993-5.594-1.503-11.523-1.503-17.452
		C216.938,149.655,217.447,143.74,218.434,138.157z"/>
	<path fill="#FFFFFF" d="M210,48.75c-62.822,0-113.75,50.928-113.75,113.75c0,62.822,50.928,113.75,113.75,113.75
		c62.822,0,113.75-50.928,113.75-113.75C323.75,99.678,272.822,48.75,210,48.75z M241.219,204.125
		c-7.114,0-12.697-4.878-16.723-12.4l-0.086,0.043c-5.442-10.645-13.366-17.713-22.121-18.638c-0.311,0.087-0.643,0.123-0.921,0.274
		c-0.015,0-0.025,0.015-0.04,0.015c-0.021,0.015-0.029,0.036-0.047,0.051c-0.427,0.261-0.773,0.6-1.052,1.012
		c-0.072,0.102-0.141,0.188-0.202,0.304c-0.224,0.419-0.357,0.874-0.394,1.373c-0.008,0.079-0.062,0.137-0.062,0.217v24.281
		c0,1.915,3.469,3.469,3.469,6.938v3.469c0,3.83-3.101,6.938-6.938,6.938h-13.875c-3.827,0-6.938-3.107-6.938-6.938v-31.219
		c0-3.83-3.097-6.923-6.916-6.938c-7.783,0-13.875-7.617-13.875-17.344c0-9.724,6.092-17.344,13.875-17.344h14.417h15.284h2.298
		c9.518,0,18.204-7.4,24.036-18.822l0.075,0.04c4.019-7.544,9.611-12.437,16.733-12.437c15.941,0,24.281,24.429,24.281,48.562
		C265.5,179.691,257.16,204.125,241.219,204.125z"/>
	<path fill="#FFFFFF" d="M241.219,113.938c-6.999,0-13.008,9.965-15.75,24.281h8.812c7.775,0,13.875,7.62,13.875,17.344
		c0,9.727-6.1,17.344-13.875,17.344h-8.812c2.742,14.323,8.751,24.281,15.75,24.281c9.579,0,17.344-18.638,17.344-41.625
		C258.562,132.575,250.798,113.938,241.219,113.938z"/>
</g>
</svg>
