<?xml version="1.0" encoding="utf-8"?>
<!-- Generator: Adobe Illustrator 16.0.4, SVG Export Plug-In . SVG Version: 6.00 Build 0)  -->
<!DOCTYPE svg PUBLIC "-//W3C//DTD SVG 1.1//EN" "http://www.w3.org/Graphics/SVG/1.1/DTD/svg11.dtd">
<svg version="1.1" id="Layer_1" xmlns="http://www.w3.org/2000/svg" xmlns:xlink="http://www.w3.org/1999/xlink" x="0px" y="0px"
	 width="420px" height="325px" viewBox="0 0 420 325" enable-background="new 0 0 420 325" xml:space="preserve">
<g id="APP_DESIGN">
</g>
<g id="ECOMMERCE">
</g>
<g id="WORDPRESS">
</g>
<path fill="#FFFFFF" d="M92.5,162.5c0-64.225,51.53-116.406,115.5-117.475V0H0v325h208v-45.025
	C144.03,278.906,92.5,226.725,92.5,162.5z"/>
<path fill="#FFFFFF" d="M327.5,162.5c0-64.225-51.529-116.406-115.5-117.475V0h208v325H212v-45.025
	C275.971,278.906,327.5,226.725,327.5,162.5z"/>
<path fill="#FFFFFF" d="M210,48.75c-62.823,0-113.75,50.928-113.75,113.75c0,62.823,50.928,113.75,113.75,113.75
	c62.822,0,113.75-50.927,113.75-113.75C323.75,99.678,272.822,48.75,210,48.75z M262.546,146.507V162.5v15.992v14.154
	c0,2.396-2.396,2.396-2.396,2.396h-50.149h-50.15c0,0-2.396,0-2.396-2.396v-14.153V162.5v-15.992v-14.154
	c0-2.396,2.396-2.396,2.396-2.396h50.15l0,0h50.149c0,0,2.396,0,2.396,2.396V146.507z"/>
<path fill="#FFFFFF" d="M178.652,136.134h-6.985l0,0h-6.985c0,0-0.334,0-0.334,0.334v1.971v2.228v2.228v1.972
	c0,0.334,0.334,0.334,0.334,0.334h6.985h6.985c0,0,0.333,0,0.333-0.334v-1.972v-2.228v-2.228v-1.972
	C178.985,136.134,178.652,136.134,178.652,136.134z"/>
<circle fill="#FFFFFF" cx="210" cy="168.167" r="18.667"/>
</svg>
