<?xml version="1.0" encoding="utf-8"?>
<!-- Generator: Adobe Illustrator 16.0.4, SVG Export Plug-In . SVG Version: 6.00 Build 0)  -->
<!DOCTYPE svg PUBLIC "-//W3C//DTD SVG 1.1//EN" "http://www.w3.org/Graphics/SVG/1.1/DTD/svg11.dtd">
<svg version="1.1" id="Layer_1" xmlns="http://www.w3.org/2000/svg" xmlns:xlink="http://www.w3.org/1999/xlink" x="0px" y="0px"
	 width="420px" height="325px" viewBox="0 0 420 325" enable-background="new 0 0 420 325" xml:space="preserve">
<g id="APP_DESIGN">
</g>
<g id="ECOMMERCE">
</g>
<g id="WORDPRESS">
</g>
<path fill="#FFFFFF" d="M92.5,162.5c0-64.225,51.53-116.406,115.5-117.475V0H0v325h208v-45.025
	C144.03,278.906,92.5,226.725,92.5,162.5z"/>
<path fill="#FFFFFF" d="M327.5,162.5c0-64.225-51.529-116.406-115.5-117.475V0h208v325H212v-45.025
	C275.971,278.906,327.5,226.725,327.5,162.5z"/>
<path fill="#FFFFFF" d="M210,48.75c-62.823,0-113.75,50.928-113.75,113.75c0,62.823,50.928,113.75,113.75,113.75
	c62.822,0,113.75-50.927,113.75-113.75C323.75,99.678,272.822,48.75,210,48.75z M262.546,146.507V162.5v15.992v14.154
	c0,2.396-2.396,2.396-2.396,2.396h-50.149h-50.15c0,0-2.396,0-2.396-2.396v-14.153V162.5v-15.992v-14.154
	c0-2.396,2.396-2.396,2.396-2.396h50.15l0,0h50.149c0,0,2.396,0,2.396,2.396V146.507z"/>
<g>
	<path fill="#FFFFFF" d="M192.965,178.989l-16.211-15.06l16.211-15.03l3.752,4.188l-11.93,10.79l11.93,10.923L192.965,178.989z"/>
	<path fill="#FFFFFF" d="M203.891,184.08h-5.701l16.789-43.16h5.726L203.891,184.08z"/>
	<path fill="#FFFFFF" d="M227.034,148.9l16.212,15.03l-16.212,15.06l-3.728-4.188l11.905-10.816l-11.905-10.896L227.034,148.9z"/>
</g>
</svg>
