<?xml version="1.0" encoding="utf-8"?>
<!-- Generator: Adobe Illustrator 16.0.4, SVG Export Plug-In . SVG Version: 6.00 Build 0)  -->
<!DOCTYPE svg PUBLIC "-//W3C//DTD SVG 1.1//EN" "http://www.w3.org/Graphics/SVG/1.1/DTD/svg11.dtd">
<svg version="1.1" id="Layer_1" xmlns="http://www.w3.org/2000/svg" xmlns:xlink="http://www.w3.org/1999/xlink" x="0px" y="0px"
	 width="420px" height="325px" viewBox="0 0 420 325" enable-background="new 0 0 420 325" xml:space="preserve">
<g id="APP_DESIGN">
</g>
<g id="ECOMMERCE">
</g>
<g id="WORDPRESS">
</g>
<path fill="#FFFFFF" d="M92.5,162.5c0-64.225,51.53-116.406,115.5-117.475V0H0v325h208v-45.025
	C144.03,278.906,92.5,226.725,92.5,162.5z"/>
<path fill="#FFFFFF" d="M327.5,162.5c0-64.225-51.529-116.406-115.5-117.475V0h208v325H212v-45.025
	C275.971,278.906,327.5,226.725,327.5,162.5z"/>
<g>
	<path fill="#FFFFFF" d="M215.556,130.095c4.587,0,8.319-3.733,8.319-8.323c0-4.59-3.732-8.324-8.319-8.324
		c-4.59,0-8.323,3.734-8.323,8.324C207.233,126.362,210.966,130.095,215.556,130.095z"/>
	<path fill="#FFFFFF" d="M230.828,149.079h-65.952c-1.918,0-3.471,1.551-3.471,3.469v55.539c0,1.911,1.553,3.468,3.471,3.468h65.952
		c1.91,0,3.472-1.557,3.472-3.468v-55.539C234.3,150.634,232.738,149.079,230.828,149.079z"/>
	<polygon fill="#FFFFFF" points="255.124,152.548 237.766,169.902 237.766,190.73 241.241,194.197 241.241,194.3 255.124,208.183 
		255.518,208.183 258.595,208.183 258.595,152.548 255.518,152.548 	"/>
	<path fill="#FFFFFF" d="M179.918,130.095c4.59,0,8.324-3.733,8.324-8.323c0-4.59-3.733-8.324-8.324-8.324
		c-4.59,0-8.324,3.734-8.324,8.324C171.595,126.362,175.329,130.095,179.918,130.095z"/>
	<path fill="#FFFFFF" d="M210,48.833c-62.776,0-113.666,50.89-113.666,113.666S147.224,276.166,210,276.166
		S323.666,225.275,323.666,162.5S272.775,48.833,210,48.833z M215.556,106.5c8.433,0,15.272,6.838,15.272,15.272
		c0,8.434-6.84,15.272-15.272,15.272c-8.436,0-15.272-6.838-15.272-15.272C200.284,113.338,207.12,106.5,215.556,106.5z
		 M179.918,106.5c8.436,0,15.272,6.838,15.272,15.272c0,8.434-6.836,15.272-15.272,15.272c-8.433,0-15.272-6.838-15.272-15.272
		C164.646,113.338,171.485,106.5,179.918,106.5z M265.537,208.183c0,3.836-3.114,6.941-6.942,6.941h-3.077
		c-1.823,0-3.573-0.718-4.874-1.998l-9.402-9.274v4.235c0,5.75-4.667,10.413-10.413,10.413h-65.952
		c-5.756,0-10.413-4.663-10.413-10.413v-31.339v-24.2c0-5.742,4.67-10.413,10.413-10.413h65.952c5.746,0,10.413,4.662,10.413,10.413
		v4.331l9.402-9.273c1.301-1.281,3.051-2,4.874-2h3.077c3.828,0,6.942,3.109,6.942,6.941V208.183z"/>
</g>
</svg>
