<?xml version="1.0" encoding="utf-8"?>
<!-- Generator: Adobe Illustrator 16.0.4, SVG Export Plug-In . SVG Version: 6.00 Build 0)  -->
<!DOCTYPE svg PUBLIC "-//W3C//DTD SVG 1.1//EN" "http://www.w3.org/Graphics/SVG/1.1/DTD/svg11.dtd">
<svg version="1.1" id="Layer_1" xmlns="http://www.w3.org/2000/svg" xmlns:xlink="http://www.w3.org/1999/xlink" x="0px" y="0px"
	 width="420px" height="325px" viewBox="0 0 420 325" enable-background="new 0 0 420 325" xml:space="preserve">
<g id="APP_DESIGN">
</g>
<g id="ECOMMERCE">
</g>
<g id="WORDPRESS">
</g>
<path fill="#FFFFFF" d="M92.5,162.5c0-64.225,51.53-116.406,115.5-117.475V0H0v325h208v-45.025
	C144.03,278.906,92.5,226.725,92.5,162.5z"/>
<path fill="#FFFFFF" d="M327.5,162.5c0-64.225-51.529-116.406-115.5-117.475V0h208v325H212v-45.025
	C275.971,278.906,327.5,226.725,327.5,162.5z"/>
<path fill="#FFFFFF" d="M210,48.75c-62.822,0-113.75,50.928-113.75,113.75c0,62.823,50.928,113.75,113.75,113.75
	c62.822,0,113.75-50.927,113.75-113.75C323.75,99.678,272.822,48.75,210,48.75z M217.439,110.645c9.111,0,16.5,7.387,16.5,16.5
	s-7.389,16.5-16.5,16.5c-9.113,0-16.5-7.387-16.5-16.5S208.327,110.645,217.439,110.645z M178.841,110.646
	c9.113,0,16.5,7.387,16.5,16.5c0,9.112-7.387,16.5-16.5,16.5c-9.113,0-16.5-7.387-16.5-16.5S169.728,110.646,178.841,110.646z
	 M266.271,181.812L266.271,181.812v18.834l-22.5-12.5v9.656v14.154c0,2.398-2.053,2.398-2.053,2.398h-42.97h-42.97
	c0,0-2.053,0-2.053-2.396v-14.154v-15.992V165.82v-14.155c0-2.396,2.053-2.396,2.053-2.396h42.97l0,0h42.97c0,0,2.053,0,2.053,2.396
	v14.155v9.658l22.5-12.5V181.812z"/>
</svg>
