<?xml version="1.0" encoding="utf-8"?>
<!-- Generator: Adobe Illustrator 16.0.4, SVG Export Plug-In . SVG Version: 6.00 Build 0)  -->
<!DOCTYPE svg PUBLIC "-//W3C//DTD SVG 1.1//EN" "http://www.w3.org/Graphics/SVG/1.1/DTD/svg11.dtd">
<svg version="1.1" id="Layer_1" xmlns="http://www.w3.org/2000/svg" xmlns:xlink="http://www.w3.org/1999/xlink" x="0px" y="0px"
	 width="800px" height="800px" viewBox="0 0 800 800" enable-background="new 0 0 800 800" xml:space="preserve">
<path fill="#3A424D" d="M606.314,256.988H193.876h-3.578h-8.681h-5.98v287.327h448.941V256.988h-15.528H606.314z M588.357,274.946
	L414.918,448.39c-7.909,7.909-21.71,7.909-29.619,0L211.833,274.946H588.357z M193.596,282.102l116.602,116.584L193.596,515.292
	V282.102z M207.923,526.357l114.98-114.971l49.699,49.699c7.339,7.348,17.116,11.398,27.506,11.398s20.167-4.051,27.507-11.398
	l49.699-49.699l114.971,114.971H207.923z M606.621,515.292L490.02,398.686l116.602-116.61V515.292z"/>
</svg>
