<?xml version="1.0" encoding="utf-8"?>
<!-- Generator: Adobe Illustrator 16.0.4, SVG Export Plug-In . SVG Version: 6.00 Build 0)  -->
<!DOCTYPE svg PUBLIC "-//W3C//DTD SVG 1.1//EN" "http://www.w3.org/Graphics/SVG/1.1/DTD/svg11.dtd">
<svg version="1.1" id="Layer_1" xmlns="http://www.w3.org/2000/svg" xmlns:xlink="http://www.w3.org/1999/xlink" x="0px" y="0px"
	 width="2560px" height="221.429px" viewBox="0 0 2560 221.429" enable-background="new 0 0 2560 221.429" xml:space="preserve">
<g>
	<rect x="12.904" y="16.336" fill="#0693C0" width="27.185" height="193.864"/>
	<path fill="#0693C0" d="M198.867,210.187h27.181V84.429c0-10.975-1.917-28.282-1.917-28.282h0.546c0,0,9.067,17.572,16.2,28.282
		l86.495,125.757h26.634V16.326h-27.185v126.052c0,10.699,1.922,28.011,1.922,28.011h-0.546c0,0-9.063-17.591-16.204-28.011
		L225.777,16.326h-26.91V210.187z"/>
	<path fill="#0693C0" d="M512.784,210.187h27.181V84.429c0-10.975-1.922-28.282-1.922-28.282h0.551c0,0,9.062,17.572,16.2,28.282
		l86.491,125.757h26.63V16.326h-27.176v126.052c0,10.699,1.917,28.011,1.917,28.011h-0.546c0,0-9.063-17.591-16.205-28.011
		L539.69,16.326h-26.906V210.187z"/>
	<path fill="#0693C0" d="M1204.042,210.187h27.181l71.392-193.86h-28.832l-48.601,137.022c-3.56,10.439-7.403,26.636-7.403,26.636
		h-0.559c0,0-3.844-16.196-7.408-26.636l-48.049-137.022h-29.383L1204.042,210.187z"/>
	<polygon fill="#0693C0" points="1544.314,210.187 1572.601,210.187 1502.854,16.326 1474.298,16.326 1404.555,210.187 
		1432.569,210.187 1451.787,154.459 1524.825,154.459 	"/>
	<path fill="#FFFFFF" d="M1488.852,42.966c0,0,4.114,17.577,7.416,27.456l21.421,61.507h-58.765l21.689-61.507
		c3.294-9.879,7.679-27.456,7.679-27.456H1488.852z"/>
	<polygon fill="#0693C0" points="1736.877,210.187 1764.053,210.187 1764.053,39.948 1830.503,39.948 1830.503,16.326 
		1670.425,16.326 1670.425,39.948 1736.877,39.948 	"/>
	<rect x="1964.293" y="16.336" fill="#0693C0" width="27.186" height="193.864"/>
	<path fill="#0693C0" d="M2197.206,210.187h27.176l71.405-193.86h-28.837l-48.604,137.022c-3.563,10.439-7.407,26.636-7.407,26.636
		h-0.551c0,0-3.843-16.196-7.416-26.636l-48.056-137.022h-29.368L2197.206,210.187z"/>
	<polygon fill="#0693C0" points="2429.837,210.187 2547.096,210.187 2547.096,186.579 2457.021,186.579 2457.021,124.241 
		2526.498,124.241 2526.498,100.63 2457.021,100.63 2457.021,39.948 2542.422,39.948 2542.422,16.326 2429.837,16.326 	"/>
	<g>
		<path fill="#0693C0" d="M953.867,163.657c13.644,0,26.402,3.825,37.358,10.49c12.417-16.857,19.792-37.838,19.792-60.598
			c0-55.508-43.861-100.512-97.966-100.512c-54.095,0-97.96,45.003-97.96,100.512c0,45.891,29.975,84.597,70.916,96.65
			C897.029,182.865,923.253,163.657,953.867,163.657"/>
	</g>
	<path fill="#0693C0" d="M198.867,210.187h27.181V84.429c0-10.975-1.917-28.282-1.917-28.282h0.546c0,0,9.067,17.572,16.2,28.282
		l86.495,125.757h26.634V16.326h-27.185v126.052c0,10.699,1.922,28.011,1.922,28.011h-0.546c0,0-9.063-17.591-16.204-28.011
		L225.777,16.326h-26.91V210.187z"/>
	<path fill="#0693C0" d="M512.784,210.187h27.181V84.429c0-10.975-1.922-28.282-1.922-28.282h0.551c0,0,9.062,17.572,16.2,28.282
		l86.491,125.757h26.63V16.326h-27.176v126.052c0,10.699,1.917,28.011,1.917,28.011h-0.546c0,0-9.063-17.591-16.205-28.011
		L539.69,16.326h-26.906V210.187z"/>
	<path fill="#0693C0" d="M1204.042,210.187h27.181l71.392-193.86h-28.832l-48.601,137.022c-3.56,10.439-7.403,26.636-7.403,26.636
		h-0.559c0,0-3.844-16.196-7.408-26.636l-48.049-137.022h-29.383L1204.042,210.187z"/>
</g>
</svg>
